<?xml version="1.0" standalone="yes"?>
<svg xmlns="http://www.w3.org/2000/svg" width="255" height="180">
<path style="fill:#010101; stroke:none;" d="M0 0L0 180L255 180L255 0L138 0L138 1C165.58 3.42308 161 32.1071 161 52C161 64.3554 162.377 77.5589 150 84.7716C134.149 94.0088 108.41 78.2702 94.3295 92.3295C84.4199 102.224 88 121.323 88 134C81.4707 134 73.6566 135.276 68.0039 131.347C48.3705 117.702 48.7757 68.666 64.3287 52.1852C70.5783 45.5628 78.6336 46 87 46L126 46L126 41L91 41C91 23.1743 89.7529 3.0424 113 1L79 0L0 0z"/>
<path style="fill:#3773a5; stroke:none;" d="M91 41L126 41L126 46L85 46C77.0878 46 69.2538 45.6924 63.5293 52.1852C50.9446 66.4588 52.175 94.7296 56.2361 112C57.936 119.229 60.6974 126.894 67.0147 131.347C72.8268 135.444 81.2625 134 88 134C88 119.523 83.8969 96.7421 100.001 89.0502C118.359 80.2815 158.564 99.828 160.91 68C161.858 55.1354 161 41.9004 161 29C161 22.1523 161.52 15.5643 156.775 10.0154C144.411 -4.44528 104.913 -5.7057 93.7029 11.0039C88.5072 18.7485 91 32.0865 91 41z"/>
<path style="fill:#1cdae4; stroke:none;" d="M142 1L143 2L142 1M95 8L96 9L95 8z"/>
<path style="fill:#010101; stroke:none;" d="M106.029 15.0208C99.4306 16.2958 99.6254 29.0783 106.971 28.338C114.03 27.6267 113.248 13.6257 106.029 15.0208z"/>
<path style="fill:#1cdae4; stroke:none;" d="M109 15L110 16L109 15z"/>
<path style="fill:#ffd343; stroke:none;" d="M165 45C165 59.2815 168.494 81.5766 152.999 89.5471C132.914 99.8791 93.6493 78.1199 91.0903 113C90.0353 127.379 86.1028 157.166 95.5579 168.907C107.157 183.31 147.117 184.497 158.347 168.96C163.793 161.425 161 146.882 161 138L127 138L127 133L167 133C175.017 133 182.825 133.23 188.787 126.895C201.707 113.166 200.248 82.983 196.102 66C194.465 59.2947 191.78 51.8543 185.96 47.6528C180.229 43.5158 171.68 45 165 45z"/>
<path style="fill:#010101; stroke:none;" d="M144.108 151.086C137.81 154.037 140.507 166.213 147.787 163.377C154.401 160.801 150.892 147.908 144.108 151.086z"/>
<path style="fill:#ff7f01; stroke:none;" d="M149 175L150 176L149 175z"/>
</svg>
